{
  "id": "qgvqkbsnv5rgp0ck1hbbsk2k50",
  "model": "thomasmol/whisper-diarization",
  "version": "cbd15da9f839c5f932742f86ce7def3a03c22e2b4171d42823e83e314547003f",
  "input": {
    "file": "https://api.replicate.com/v1/files/MWJlZjlhZDYtOTVjZC00YTQ1LThkZTEtM2VhYTg5Mjk4Y2Y1/download?expiry=1731082396&owner=tyschultz&signature=FxzzAttbhMnuzz1AHV%252F9cQIU8I4n%252B83OnhuNQfRICNc%253D",
    "file_url": "",
    "group_segments": true,
    "language": "en",
    "num_speakers": 2,
    "offset_seconds": 0,
    "prompt": "",
    "transcript_output_format": "segments_only",
    "translate": false
  },
  "logs": "ffmpeg version 4.4.2-0ubuntu0.22.04.1 Copyright (c) 2000-2021 the FFmpeg developers\nbuilt with gcc 11 (Ubuntu 11.2.0-19ubuntu1)\nconfiguration: --prefix=/usr --extra-version=0ubuntu0.22.04.1 --toolchain=hardened --libdir=/usr/lib/x86_64-linux-gnu --incdir=/usr/include/x86_64-linux-gnu --arch=amd64 --enable-gpl --disable-stripping --enable-gnutls --enable-ladspa --enable-libaom --enable-libass --enable-libbluray --enable-libbs2b --enable-libcaca --enable-libcdio --enable-libcodec2 --enable-libdav1d --enable-libflite --enable-libfontconfig --enable-libfreetype --enable-libfribidi --enable-libgme --enable-libgsm --enable-libjack --enable-libmp3lame --enable-libmysofa --enable-libopenjpeg --enable-libopenmpt --enable-libopus --enable-libpulse --enable-librabbitmq --enable-librubberband --enable-libshine --enable-libsnappy --enable-libsoxr --enable-libspeex --enable-libsrt --enable-libssh --enable-libtheora --enable-libtwolame --enable-libvidstab --enable-libvorbis --enable-libvpx --enable-libwebp --enable-libx265 --enable-libxml2 --enable-libxvid --enable-libzimg --enable-libzmq --enable-libzvbi --enable-lv2 --enable-omx --enable-openal --enable-opencl --enable-opengl --enable-sdl2 --enable-pocketsphinx --enable-librsvg --enable-libmfx --enable-libdc1394 --enable-libdrm --enable-libiec61883 --enable-chromaprint --enable-frei0r --enable-libx264 --enable-shared\nlibavutil      56. 70.100 / 56. 70.100\nlibavcodec     58.134.100 / 58.134.100\nlibavformat    58. 76.100 / 58. 76.100\nlibavdevice    58. 13.100 / 58. 13.100\nlibavfilter     7.110.100 /  7.110.100\nlibswscale      5.  9.100 /  5.  9.100\nlibswresample   3.  9.100 /  3.  9.100\nlibpostproc    55.  9.100 / 55.  9.100\nInput #0, mp3, from '/tmp/tmpi7fmx94mdownload':\nMetadata:\nmajor_brand     : M4A\nminor_version   : 0\ncompatible_brands: M4A isommp42\niTunSMPB        :  00000000 00000840 00000000 000000000026F7C0 00000000 00000000 00000000 00000000 00000000 00000000 00000000 00000000\nencoder         : Lavf60.3.100\nDuration: 00:00:53.23, start: 0.023021, bitrate: 91 kb/s\nStream #0:0: Audio: mp3, 48000 Hz, mono, fltp, 91 kb/s\nStream mapping:\nStream #0:0 -> #0:0 (mp3 (mp3float) -> pcm_s16le (native))\nPress [q] to stop, [?] for help\nOutput #0, wav, to 'temp-1731078933710157152.wav':\nMetadata:\nmajor_brand     : M4A\nminor_version   : 0\ncompatible_brands: M4A isommp42\niTunSMPB        :  00000000 00000840 00000000 000000000026F7C0 00000000 00000000 00000000 00000000 00000000 00000000 00000000 00000000\nISFT            : Lavf58.76.100\nStream #0:0: Audio: pcm_s16le ([1][0][0][0] / 0x0001), 16000 Hz, mono, s16, 256 kb/s\nMetadata:\nencoder         : Lavc58.134.100 pcm_s16le\nsize=       0kB time=00:00:00.00 bitrate=N/A speed=N/A\nsize=    1663kB time=00:00:53.20 bitrate= 256.0kbits/s speed=1.28e+03x\nvideo:0kB audio:1663kB subtitle:0kB other streams:0kB global headers:0kB muxing overhead: 0.004581%\nStarting transcribing\nFinished with transcribing, took 2.6696 seconds\nStarting diarization\nFinished with diarization, took 0.61205 seconds\nStarting merging\nFinished with merging, took 0.00022912 seconds\nStarting cleaning\nFinished with cleaning, took 0.00017238 seconds\nProcessing time: 3.2821 seconds\ndone with inference\n",
  "output": {
    "language": "en",
    "num_speakers": 2,
    "segments": [
      {
        "avg_logprob": -0.18245570748809756,
        "end": 10.05,
        "speaker": "SPEAKER_01",
        "start": 0.08,
        "text": "um but yeah i mean i can still understand like maybe some jokes about like you know if you're sort of passing drugs on trump but man i was there at that thing and"
      },
      {
        "avg_logprob": -0.18245570748809756,
        "end": 40.61,
        "speaker": "SPEAKER_00",
        "start": 10.63,
        "text": "that they were acting on trump so much it was insane the reason why i would push back on that because i would say there's a bunch of different speakers right and trump would obviously be a target and they all attacked him it's because he's like if you're going to make fun of people in the audience and especially in the zeitgeist that whole birther thing was big yeah and most people were dismissing it as being a ridiculous conspiracy theory so who the is this guy saying this and so you have eight to ten individual speakers that are writing"
      },
      {
        "avg_logprob": -0.12934028366465627,
        "end": 51.54,
        "speaker": "SPEAKER_01",
        "start": 41.35,
        "text": "monologues of course they're all going to hit trump yeah well anyway i'll say it was a mistake yeah they shouldn't have done that and and i would like to invite people to watch that"
      }
    ]
  },
  "data_removed": false,
  "error": null,
  "status": "succeeded",
  "created_at": "2024-11-08T15:13:16.761Z",
  "started_at": "2024-11-08T15:15:33.263863074Z",
  "completed_at": "2024-11-08T15:15:37.116298503Z",
  "urls": {
    "cancel": "https://api.replicate.com/v1/predictions/qgvqkbsnv5rgp0ck1hbbsk2k50/cancel",
    "get": "https://api.replicate.com/v1/predictions/qgvqkbsnv5rgp0ck1hbbsk2k50"
  },
  "metrics": {
    "predict_time": 3.8524354389999997
  }
}